HIERARCHY
ROOT Hips
{
  OFFSET 27.7174 85.5012 -39.8091
  CHANNELS 6 Xposition Yposition Zposition Zrotation Xrotation Yrotation
  JOINT RightUpLeg
  {
    OFFSET -8.9458 -8.66707 0.101652
    CHANNELS 3 Zrotation Xrotation Yrotation
    JOINT RightLeg
    {
      OFFSET 0 -44.4227 1.3727
      CHANNELS 3 Zrotation Xrotation Yrotation
      JOINT RightFoot
      {
        OFFSET 0.253549 -42.0924 -1.46059
        CHANNELS 3 Zrotation Xrotation Yrotation
        JOINT RightToes
        {
          OFFSET 0.04 -4.41509 8.4991
          CHANNELS 3 Zrotation Xrotation Yrotation
          End Site
          {
            OFFSET -0.08 -0.137448 9.77979
          }
        }
      }
    }
  }
  JOINT Spine
  {
    OFFSET 0 11.8905 0
    CHANNELS 3 Zrotation Xrotation Yrotation
    JOINT Spine1
    {
      OFFSET 0 25.6574 0.127663
      CHANNELS 3 Zrotation Xrotation Yrotation
      JOINT HEad
      {
        OFFSET 0 8.73416 0.011341
        CHANNELS 3 Zrotation Xrotation Yrotation
        End Site
        {
          OFFSET -0.29 12.7742 2.51395
        }
      }
      JOINT LeftShoulder1
      {
        OFFSET 8.99 -0.362252 -0.22
        CHANNELS 3 Zrotation Xrotation Yrotation
        JOINT LeftArm
        {
          OFFSET 10.2827 -0.00338 0.322123
          CHANNELS 3 Zrotation Xrotation Yrotation
          JOINT LeftForeArm
          {
            OFFSET 32.7669 0.099144 -1.42434
            CHANNELS 3 Zrotation Xrotation Yrotation
            JOINT LeftHand
            {
              OFFSET 27.5643 0.085362 1.02216
              CHANNELS 3 Zrotation Xrotation Yrotation
              End Site
              {
                OFFSET 16.7443 -0.6 1.50291
              }
            }
          }
        }
      }
      JOINT RightShoulder
      {
        OFFSET -8.99 -0.362252 -0.22
        CHANNELS 3 Zrotation Xrotation Yrotation
        JOINT RightArm
        {
          OFFSET -10.2827 -0.00338 0.322123
          CHANNELS 3 Zrotation Xrotation Yrotation
          JOINT RightForeArm
          {
            OFFSET -32.8971 0.099144 -1.42434
            CHANNELS 3 Zrotation Xrotation Yrotation
            JOINT RightHand
            {
              OFFSET -27.4921 0.085362 1.02216
              CHANNELS 3 Zrotation Xrotation Yrotation
              End Site
              {
                OFFSET -16.6312 -0.6 1.50291
              }
            }
          }
        }
      }
    }
  }
  JOINT LeftUpLeg
  {
    OFFSET 8.9458 -8.66707 0.101652
    CHANNELS 3 Zrotation Xrotation Yrotation
    JOINT LeftLeg
    {
      OFFSET 0 -44.4227 1.3727
      CHANNELS 3 Zrotation Xrotation Yrotation
      JOINT LeftFoot
      {
        OFFSET -0.253549 -42.0924 -1.46059
        CHANNELS 3 Zrotation Xrotation Yrotation
        JOINT LeftToes
        {
          OFFSET -0.04 -4.41509 8.4991
          CHANNELS 3 Zrotation Xrotation Yrotation
          End Site
          {
            OFFSET 0.08 -0.047448 9.77979
          }
        }
      }
    }
  }
}
MOTION
Frames:	12
Frame Time:	0.0166667
26.2001 90.2904 -42.56 10.0262 2.19953 105.923 -43.8574 3.31377 17.629 57.0847 0.985451 -54.5276 -22.9039 -11.2279 -0.890825 0.0462048 0.000533403 0.662642 -9.37088 21.4395 4.96122 -0.00388992 0.0080502 -0.0101998 -13.2051 29.0068 6.98106 0 1.19271e-015 -0 171.498 -57.4215 -152.701 -120.792 64.1973 0.947598 19.173 20.3453 -11.4396 14.7758 7.38217 -0.288168 98.8343 -5.34434 68.8967 22.4084 48.7207 78.2318 16.1918 22.526 7.03979 13.858 -10.9425 -16.5344 -32.4914 26.1078 75.2341 73.7944 -16.7934 11.4791 -6.38221e-009 1.56031e-007 -4.88727e-009 
25.9876 90.4934 -42.7956 10.4298 2.54618 105.971 -44.8619 3.82838 18.5537 57.7931 0.728702 -56.8627 -18.9059 -12.6422 0.40753 0.0462048 0.000533403 0.662642 -10.0887 21.9918 5.1738 -0.00388992 0.0080502 -0.0101998 -12.499 30.9129 4.81405 -1.59028e-015 -2.38542e-015 3.18055e-015 173.284 -57.8034 -151.987 -118.306 64.8689 -0.986265 19.2812 20.3499 -11.2531 15.4654 7.57285 -0.909913 99.0644 -5.37445 69.0869 21.9563 48.8976 78.9863 16.2412 22.6904 7.1705 12.3237 -9.99948 -19.7631 -30.9808 24.0994 77.4825 74.9684 -15.8848 10.8038 -6.38221e-009 1.56031e-007 -4.88727e-009 
25.7447 90.6203 -43.073 10.7999 2.89161 106.015 -45.6368 4.28889 19.4464 58.3322 0.521338 -58.5269 -14.8597 -13.6704 1.60999 0.0462048 0.000533403 0.662642 -10.7446 22.5177 5.27002 -0.00388992 0.0080502 -0.0101998 -11.8665 32.43 3.07998 -2.20695e-031 3.97569e-015 3.18055e-015 174.997 -58.1564 -151.225 -115.821 65.5677 -2.91119 18.6893 19.7049 -11.1136 16.0784 7.76844 -1.40247 99.317 -5.51423 69.321 21.5052 49.0959 79.7832 16.3691 22.5305 7.0469 11.2967 -9.33007 -22.6153 -30.6325 22.3911 79.824 76.3769 -15.0278 10.5278 -6.38221e-009 1.56031e-007 -4.88727e-009 
25.4789 90.708 -43.3701 11.1346 3.22223 106.042 -46.1691 4.71577 20.3219 58.5427 0.346828 -59.5543 -10.7573 -14.3087 2.6418 0.0462048 0.000533403 0.662642 -11.3358 23.0159 5.27149 -0.00388992 0.0080502 -0.0101998 -11.3384 33.5798 1.76911 1.59028e-015 -7.95139e-016 3.18055e-015 176.662 -58.4897 -150.409 -113.258 66.2607 -4.90132 18.6573 19.588 -10.8575 16.6298 7.97109 -1.76325 99.5853 -5.74259 69.5925 21.0652 49.3069 80.5942 16.4139 22.4908 7.10493 10.1141 -8.74658 -25.0295 -29.8496 21.1737 81.6419 77.5328 -13.9578 9.92845 -6.38221e-009 1.56031e-007 -4.88727e-009 
25.1887 90.8304 -43.6804 11.4359 3.52009 106.044 -46.4019 5.12845 21.1844 58.2325 0.188078 -60.0317 -6.5929 -14.544 3.47279 0.0462048 0.000533403 0.662642 -11.8564 23.4862 5.20096 -0.00388992 0.0080502 -0.0101998 -10.9315 34.3872 0.865145 -1.59028e-015 2.38542e-015 -0 178.271 -58.8042 -149.555 -110.644 66.9234 -6.9524 18.2198 19.1231 -10.6548 17.1345 8.18082 -1.99298 99.8632 -6.03491 69.8952 20.6258 49.5284 81.4052 16.5127 22.295 7.0236 8.79683 -8.24497 -27.0122 -28.6696 20.4438 82.9614 78.4497 -12.7105 9.03072 -6.38221e-009 1.56031e-007 -4.88727e-009 
24.9299 91.0005 -44.0051 11.7147 3.76769 106.025 -46.1773 6.13044 22.4742 57.0393 0.0573393 -58.1247 -2.25097 -13.985 3.86026 0.0462048 0.000533403 0.662642 -12.2932 23.9356 5.07068 -0.00388992 0.0080502 -0.0101998 -10.6509 34.8806 0.344541 -4.77083e-015 7.95139e-016 -3.18055e-015 179.798 -59.0965 -148.703 -108.005 67.5301 -9.05927 18.1218 18.996 -10.412 17.6028 8.39671 -2.10121 100.148 -6.36259 70.2224 20.1573 49.763 82.2293 16.5753 22.2184 7.04777 7.38378 -7.76391 -28.5878 -27.1102 20.1429 83.7713 79.1393 -11.3056 7.87361 -6.38221e-009 1.56031e-007 -4.88727e-009 
24.6444 91.2103 -44.3306 11.9748 3.95474 105.987 -45.8636 6.67831 23.4757 55.5875 -0.0919892 -56.5017 1.99469 -13.3001 4.10768 0.0462048 0.000533403 0.662642 -12.6395 24.3633 4.89363 -0.00388992 0.0080502 -0.0101998 -10.4923 35.0902 0.17585 -0 -7.95139e-016 -0 -178.802 -59.359 -147.91 -105.434 68.0621 -11.1615 17.798 18.6943 -10.2239 18.0378 8.61711 -2.10017 100.439 -6.70041 70.569 19.6232 50.0132 83.0881 16.6648 22.0853 6.99001 5.91169 -7.31035 -29.7798 -25.2027 20.1701 84.0509 79.6872 -9.7351 6.47558 -6.38221e-009 1.56031e-007 -4.88727e-009 
24.3856 91.4603 -44.637 12.2162 4.07737 105.931 -44.471 6.62853 23.6039 56.0996 -0.161792 -55.3641 -15.3418 -13.1597 0.838231 0.0462048 0.000533403 0.662642 -12.8887 24.7694 4.68027 -0.00388992 0.0080502 -0.0101998 -10.5218 33.9693 1.50135 1.59028e-015 0 3.18055e-015 -177.592 -59.5749 -147.251 -103.031 68.5028 -13.1849 17.6883 18.6188 -10.0322 18.4269 8.83682 -2.00239 100.745 -7.02841 70.934 18.9972 50.2782 84.0028 16.7349 22.0316 6.99262 4.48777 -6.70087 -29.5309 -22.7541 20.5529 82.75 80.318 -8.06988 5.08101 -6.38221e-009 1.56031e-007 -4.88727e-009 
24.0896 91.6188 -44.9399 12.4378 4.13822 105.862 -42.5856 6.41082 23.5545 55.5387 -0.271303 -54.5983 -32.1893 -12.5771 -2.05123 0.0462048 0.000533403 0.662642 -13.0377 25.1516 4.43708 -0.00388992 0.0080502 -0.0101998 -10.5979 32.784 2.90152 -2.64834e-031 3.18055e-015 4.77083e-015 -176.624 -59.7266 -146.78 -100.912 68.8584 -15.0281 17.469 18.4753 -9.88665 18.7501 9.05459 -1.82053 101.08 -7.33589 71.3212 18.2757 50.5519 84.9795 16.8121 21.9324 6.94659 3.28967 -6.0076 -28.0006 -20.0655 20.9006 80.0556 81.1885 -6.3833 3.80448 -6.38221e-009 1.56031e-007 -4.88727e-009 
23.8069 91.9646 -45.2456 12.6391 4.13459 105.792 -42.6396 7.10973 24.6104 56.5357 -0.39633 -51.7609 -24.1433 -10.9644 -0.817843 0.0462048 0.000533403 0.662642 -13.0776 25.5072 4.16624 -0.00388992 0.0080502 -0.0101998 -10.7042 31.5608 4.33691 1.59028e-015 -3.97569e-016 -0 -175.912 -59.7972 -146.512 -99.1427 69.1508 -16.6241 17.4087 18.4866 -9.74503 18.9895 9.26939 -1.56979 101.456 -7.61664 71.737 17.4768 50.826 86.0119 16.8757 21.8586 6.92677 2.41181 -5.29631 -26.4416 -17.6151 20.8381 77.2493 82.1351 -4.73079 2.56512 -6.38221e-009 1.56031e-007 -4.88727e-009 
23.5271 92.1203 -45.4899 12.8211 4.06061 105.734 -41.4187 7.42668 25.0525 57.6604 -0.501858 -48.9322 -34.5502 -8.07572 -2.72708 0.0462048 0.000533403 0.662642 -12.9979 25.8351 3.86774 -0.00388992 0.0080502 -0.0101998 -10.8238 30.3261 5.77204 1.59028e-015 3.97569e-016 -3.18055e-015 -175.43 -59.7739 -146.424 -97.738 69.4109 -17.9436 17.313 18.4668 -9.62398 19.1411 9.47703 -1.27046 101.876 -7.86394 72.1855 16.6296 51.0934 87.0824 16.938 21.7398 6.8645 1.88072 -4.63825 -24.8909 -15.5133 20.4123 74.4331 83.1754 -3.14265 1.35883 -6.38221e-009 1.56031e-007 -4.88727e-009 
23.2424 92.4368 -45.711 12.9849 3.91412 105.707 -41.0929 6.84218 25.4286 59.5603 1.85668 -47.2302 -29.4054 -7.02466 -1.85626 0.0462048 0.000533403 0.662642 -12.7966 26.1341 3.54225 -0.00388992 0.0080502 -0.0101998 -10.9401 29.1057 7.17535 -0 -2.78299e-015 -0 -175.116 -59.6505 -146.46 -96.6529 69.6624 -19.0099 17.3322 18.5241 -9.48941 19.216 9.67183 -0.944478 102.333 -8.07215 72.6673 15.7619 51.3504 88.1709 16.989 21.6308 6.80484 1.63654 -3.98524 -23.3752 -13.7925 19.6557 71.7115 84.3122 -1.68738 0.261736 -6.38221e-009 1.56031e-007 -4.88727e-009 
